<svg xmlns="http://www.w3.org/2000/svg" width="134" height="129">
  <path d="M79.1 44.8a10 10 0 0 0 0-7.1c-8-9.4-7.5-13-6.9-16.8 1.2-7.1 5.6-11.3 11.3-10.4 3.8.6 4.4 4.3 5.2 8.8.4 2.4.9 5 1.8 7.5 1 2.5 6.2 6.8 10.8 10.7 3 2.5 5.8 4.8 7.1 6.4 7.4 5 14 11.7 15.8 22.7a51.4 51.4 0 0 1-8.7 32c-8.5 9.2-24 9.5-32.3 9.8l-4.2.1c-.6.1-1.2 0-1.8-.2a7.7 7.7 0 0 1-.8.2L42.6 116a6.5 6.5 0 0 1-3.1-12.8l30.6-8.1-1.3-2.3-.7.1-45.6 1.3a6.9 6.9 0 0 1-.5-13.8l41.2-1.7.1-2.2L14 71a7.3 7.3 0 0 1 1.5-14.6l49 4.5v-1l.2-1.3-40.3-13.8a7.6 7.6 0 0 1 4.8-14.4L77.8 46v-.1h.1l1.2-1.1z"/>
</svg>
