<svg xmlns="http://www.w3.org/2000/svg" width="132" height="117">
  <path d="M77.6 38c1 2.5.6 5 0 7l-1.4 1.3-48.7-15.6A7.6 7.6 0 0 0 22.7 45L63 58.8l-.2 2.3-49-4.5c-4.3-.3-8 3-8 7.3 0 3.7 5.5 5.7 9.2 6.1l43 4-.5 1.5c-3.6.2-7.9 5.7-8 9.3-.1 4 3.1 7 7 6.8-3.3 1-4.3 6.3-3.7 9.7.8 3.6 11 8.1 14.6 7.4l8.2-.1c.6.2 5.3.1 6 0 8.3-.1 23.8-.5 32.3-9.6a51.4 51.4 0 0 0 8.7-32 33.8 33.8 0 0 0-15.8-22.8c-1.3-1.6-4.1-4-7-6.4-4.7-3.9-9.9-8.1-10.9-10.7-1-2.4-1.4-5-1.8-7.5-.8-4.5-1.4-8.2-5.2-8.8-5.7-.9-10.1 3.3-11.3 10.4-.6 3.8-1.1 7.4 7 16.8z"/>
</svg>
